<svg xmlns="http://www.w3.org/2000/svg" xmlns:xlink="http://www.w3.org/1999/xlink" width="500" zoomAndPan="magnify" viewBox="0 0 375 374.999991" height="500" preserveAspectRatio="xMidYMid meet" version="1.0"><defs><clipPath id="836f2bd90c"><path d="M 211 241 L 212 241 L 212 242 L 211 242 Z M 211 241 " clip-rule="nonzero"/></clipPath><clipPath id="e8abc3ef3d"><path d="M 44.035156 187.226562 L 187.226562 44.035156 L 330.945312 187.753906 L 187.757812 330.945312 Z M 44.035156 187.226562 " clip-rule="nonzero"/></clipPath><clipPath id="ae1938c5ff"><path d="M 44.035156 187.226562 L 187.226562 44.035156 L 330.945312 187.753906 L 187.757812 330.945312 Z M 44.035156 187.226562 " clip-rule="nonzero"/></clipPath><clipPath id="aabf490394"><path d="M 152 114 L 222 114 L 222 331 L 152 331 Z M 152 114 " clip-rule="nonzero"/></clipPath><clipPath id="5e410f4b9d"><path d="M 44.035156 187.226562 L 187.226562 44.035156 L 330.945312 187.753906 L 187.757812 330.945312 Z M 44.035156 187.226562 " clip-rule="nonzero"/></clipPath><clipPath id="f1ea876388"><path d="M 44.035156 187.226562 L 187.226562 44.035156 L 330.945312 187.753906 L 187.757812 330.945312 Z M 44.035156 187.226562 " clip-rule="nonzero"/></clipPath><clipPath id="ef259be08c"><path d="M 168 163 L 207 163 L 207 238 L 168 238 Z M 168 163 " clip-rule="nonzero"/></clipPath><clipPath id="c768d66748"><path d="M 44.035156 187.226562 L 187.226562 44.035156 L 330.945312 187.753906 L 187.757812 330.945312 Z M 44.035156 187.226562 " clip-rule="nonzero"/></clipPath><clipPath id="3f28447c63"><path d="M 44.035156 187.226562 L 187.226562 44.035156 L 330.945312 187.753906 L 187.757812 330.945312 Z M 44.035156 187.226562 " clip-rule="nonzero"/></clipPath><clipPath id="fbe7739411"><path d="M 166 169 L 191 169 L 191 176 L 166 176 Z M 166 169 " clip-rule="nonzero"/></clipPath><clipPath id="8465dab680"><path d="M 44.035156 187.226562 L 187.226562 44.035156 L 330.945312 187.753906 L 187.757812 330.945312 Z M 44.035156 187.226562 " clip-rule="nonzero"/></clipPath><clipPath id="4c79ba2cd7"><path d="M 44.035156 187.226562 L 187.226562 44.035156 L 330.945312 187.753906 L 187.757812 330.945312 Z M 44.035156 187.226562 " clip-rule="nonzero"/></clipPath><clipPath id="6910049144"><path d="M 166 152 L 191 152 L 191 160 L 166 160 Z M 166 152 " clip-rule="nonzero"/></clipPath><clipPath id="6b1710ab15"><path d="M 44.035156 187.226562 L 187.226562 44.035156 L 330.945312 187.753906 L 187.757812 330.945312 Z M 44.035156 187.226562 " clip-rule="nonzero"/></clipPath><clipPath id="91c0fb312b"><path d="M 44.035156 187.226562 L 187.226562 44.035156 L 330.945312 187.753906 L 187.757812 330.945312 Z M 44.035156 187.226562 " clip-rule="nonzero"/></clipPath><clipPath id="37c79020ef"><path d="M 152 76 L 222 76 L 222 128 L 152 128 Z M 152 76 " clip-rule="nonzero"/></clipPath><clipPath id="97d93557f7"><path d="M 44.035156 187.226562 L 187.226562 44.035156 L 330.945312 187.753906 L 187.757812 330.945312 Z M 44.035156 187.226562 " clip-rule="nonzero"/></clipPath><clipPath id="1530493e15"><path d="M 44.035156 187.226562 L 187.226562 44.035156 L 330.945312 187.753906 L 187.757812 330.945312 Z M 44.035156 187.226562 " clip-rule="nonzero"/></clipPath></defs><g clip-path="url(#836f2bd90c)"><g clip-path="url(#e8abc3ef3d)"><g clip-path="url(#ae1938c5ff)"><path fill="#ffbd59" d="M 211.367188 241.5625 C 211.367188 241.5625 211.367188 241.5625 211.363281 241.558594 L 211.363281 241.5625 C 211.363281 241.5625 211.363281 241.5625 211.367188 241.5625 " fill-opacity="1" fill-rule="nonzero"/></g></g></g><g clip-path="url(#aabf490394)"><g clip-path="url(#5e410f4b9d)"><g clip-path="url(#f1ea876388)"><path fill="#ffbd59" d="M 206.945312 163.136719 L 206.960938 237.945312 L 178.589844 236.640625 C 179.421875 237.175781 180.34375 237.585938 181.34375 237.828125 C 184.417969 238.578125 188.007812 239.953125 195.875 240.949219 C 195.875 240.949219 172.480469 241.019531 170.492188 238.597656 C 170.519531 237.84375 170.539062 237.066406 170.558594 236.269531 L 168.503906 236.175781 L 169.472656 195.042969 L 171.597656 193.234375 L 171.777344 175.128906 C 170.4375 175.398438 169.65625 175.632812 169.632812 175.644531 C 168.304688 176.054688 166.894531 175.316406 166.484375 173.988281 C 166.070312 172.664062 166.808594 171.253906 168.136719 170.839844 C 168.277344 170.796875 169.632812 170.386719 171.824219 170 L 171.9375 158.378906 C 170.402344 158.664062 169.5 158.933594 169.472656 158.941406 C 168.144531 159.347656 166.738281 158.601562 166.332031 157.273438 C 165.925781 155.945312 166.671875 154.539062 168.003906 154.132812 C 168.148438 154.085938 169.621094 153.648438 171.988281 153.261719 L 172.214844 130.246094 L 204.75 130.726562 L 204.558594 165.164062 Z M 190.75 126.128906 C 189.726562 127.152344 188.3125 127.789062 186.75 127.789062 C 183.625 127.785156 181.09375 125.253906 181.09375 122.128906 L 181.09375 114.855469 L 157.457031 115.292969 C 154.484375 115.351562 152.171875 117.894531 152.398438 120.859375 L 152.710938 124.894531 C 152.730469 127.871094 157.109375 130.496094 163.992188 132.253906 L 164.757812 241.96875 L 164.757812 241.972656 L 164.761719 242.347656 C 164.769531 243.453125 168.59375 245.367188 176.222656 246.296875 L 176.359375 265.574219 L 181.210938 267.460938 L 181.261719 274.695312 L 182.875 274.679688 L 182.9375 283.601562 L 187.496094 285.738281 L 187.671875 330.59375 L 190.183594 328.53125 L 190.101562 285.894531 L 194.402344 283.902344 L 194.152344 274.484375 L 195.996094 274.46875 L 195.945312 267.234375 L 199.863281 265.371094 L 199.726562 246.097656 C 208.683594 245.027344 211.375 243.050781 211.367188 241.9375 L 211.363281 241.5625 L 211.363281 241.558594 L 210.589844 130.882812 C 215.589844 129.09375 221.136719 126.117188 221.117188 123.625 L 220.761719 118.992188 C 220.550781 116.261719 218.246094 114.167969 215.507812 114.21875 L 192.40625 114.648438 L 192.40625 122.128906 C 192.40625 123.691406 191.773438 125.105469 190.75 126.128906 " fill-opacity="1" fill-rule="nonzero"/></g></g></g><g clip-path="url(#ef259be08c)"><g clip-path="url(#c768d66748)"><g clip-path="url(#3f28447c63)"><path fill="#ffbd59" d="M 169.472656 195.042969 L 168.503906 236.175781 L 170.558594 236.269531 C 170.800781 226.285156 170.601562 213.71875 170.601562 213.71875 L 174.558594 230.316406 C 174.925781 232.960938 176.429688 235.242188 178.589844 236.640625 L 206.960938 237.945312 L 206.945312 163.136719 L 204.558594 165.164062 L 171.597656 193.234375 L 169.472656 195.042969 " fill-opacity="1" fill-rule="nonzero"/></g></g></g><g clip-path="url(#fbe7739411)"><g clip-path="url(#8465dab680)"><g clip-path="url(#4c79ba2cd7)"><path fill="#ffbd59" d="M 187.40625 175.117188 C 188.269531 175.296875 189.121094 175.011719 189.699219 174.433594 C 190.035156 174.097656 190.28125 173.667969 190.382812 173.171875 C 190.667969 171.8125 189.796875 170.476562 188.4375 170.191406 C 181.660156 168.777344 175.539062 169.351562 171.824219 170 C 169.632812 170.386719 168.277344 170.796875 168.136719 170.839844 C 166.808594 171.253906 166.070312 172.664062 166.484375 173.988281 C 166.894531 175.316406 168.304688 176.054688 169.632812 175.644531 C 169.65625 175.632812 170.4375 175.398438 171.777344 175.128906 C 174.828125 174.515625 180.792969 173.734375 187.40625 175.117188 " fill-opacity="1" fill-rule="nonzero"/></g></g></g><g clip-path="url(#6910049144)"><g clip-path="url(#6b1710ab15)"><g clip-path="url(#91c0fb312b)"><path fill="#ffbd59" d="M 187.171875 158.484375 C 188.035156 158.667969 188.886719 158.378906 189.464844 157.800781 C 189.800781 157.464844 190.042969 157.035156 190.148438 156.539062 C 190.433594 155.179688 189.558594 153.847656 188.199219 153.5625 C 181.628906 152.1875 175.699219 152.660156 171.988281 153.261719 C 169.621094 153.648438 168.148438 154.085938 168.003906 154.132812 C 166.671875 154.539062 165.925781 155.945312 166.332031 157.273438 C 166.738281 158.601562 168.144531 159.347656 169.472656 158.941406 C 169.5 158.933594 170.402344 158.664062 171.9375 158.378906 C 175.058594 157.796875 180.792969 157.152344 187.171875 158.484375 " fill-opacity="1" fill-rule="nonzero"/></g></g></g><g clip-path="url(#37c79020ef)"><g clip-path="url(#97d93557f7)"><g clip-path="url(#1530493e15)"><path fill="#ffbd59" d="M 158.15625 76.246094 C 155.03125 76.246094 152.5 78.777344 152.5 81.902344 C 152.5 85.027344 155.03125 87.558594 158.15625 87.558594 L 181.09375 87.558594 L 181.09375 122.128906 C 181.09375 125.253906 183.625 127.785156 186.75 127.789062 C 188.3125 127.789062 189.726562 127.152344 190.75 126.128906 C 191.773438 125.105469 192.40625 123.691406 192.40625 122.128906 L 192.40625 114.648438 L 192.410156 87.558594 L 215.984375 87.558594 C 217.546875 87.558594 218.960938 86.925781 219.984375 85.898438 C 221.007812 84.875 221.640625 83.464844 221.640625 81.902344 C 221.644531 78.777344 219.109375 76.242188 215.984375 76.246094 L 158.15625 76.246094 " fill-opacity="1" fill-rule="nonzero"/></g></g></g></svg>