<svg xmlns="http://www.w3.org/2000/svg" xmlns:xlink="http://www.w3.org/1999/xlink" width="500" zoomAndPan="magnify" viewBox="0 0 375 374.999991" height="500" preserveAspectRatio="xMidYMid meet" version="1.0"><defs><clipPath id="1f1b8f3138"><path d="M 98.664062 16.738281 L 276.414062 16.738281 L 276.414062 262.738281 L 98.664062 262.738281 Z M 98.664062 16.738281 " clip-rule="nonzero"/></clipPath><clipPath id="b753deae73"><path d="M 109.933594 103.851562 L 265.183594 103.851562 L 265.183594 319.101562 L 109.933594 319.101562 Z M 109.933594 103.851562 " clip-rule="nonzero"/></clipPath><clipPath id="a3b032697f"><path d="M 128.277344 194.167969 L 246.777344 194.167969 L 246.777344 358.417969 L 128.277344 358.417969 Z M 128.277344 194.167969 " clip-rule="nonzero"/></clipPath></defs><g clip-path="url(#1f1b8f3138)"><path fill="#7ed957" d="M 276.328125 174.0625 C 276.328125 223.082031 236.558594 262.820312 187.480469 262.820312 C 138.398438 262.820312 98.617188 223.082031 98.617188 174.0625 C 98.617188 125.035156 187.480469 16.773438 187.480469 16.773438 C 187.480469 16.773438 276.328125 125.035156 276.328125 174.0625 " fill-opacity="1" fill-rule="nonzero"/></g><g clip-path="url(#b753deae73)"><path fill="#ffbd59" d="M 265.109375 241.511719 C 265.109375 284.398438 230.375 319.171875 187.507812 319.171875 C 144.636719 319.171875 109.890625 284.398438 109.890625 241.511719 C 109.890625 198.613281 187.507812 103.882812 187.507812 103.882812 C 187.507812 103.882812 265.109375 198.613281 265.109375 241.511719 " fill-opacity="1" fill-rule="nonzero"/></g><g clip-path="url(#a3b032697f)"><path fill="#1592a8" d="M 246.71875 299.214844 C 246.71875 331.941406 220.207031 358.476562 187.484375 358.476562 C 154.765625 358.476562 128.246094 331.941406 128.246094 299.214844 C 128.246094 266.476562 187.484375 194.191406 187.484375 194.191406 C 187.484375 194.191406 246.71875 266.476562 246.71875 299.214844 " fill-opacity="1" fill-rule="nonzero"/></g></svg>