<?xml version="1.0" encoding="utf-8"?>
<svg width="625" zoomAndPan="magnify" viewBox="59.699 26.315 365.455 118.084" height="225" preserveAspectRatio="xMidYMid meet" version="1.0" xmlns="http://www.w3.org/2000/svg">
  <g fill="#000000" fill-opacity="1">
    <g transform="translate(61.395082, 57.004771)">
      <g>
        <path d="M 6.09375 0 L 1.625 0 L 1.625 -28.421875 L 6.09375 -28.421875 L 6.09375 -16.25 L 11.171875 -16.25 L 11.171875 -28.421875 L 15.71875 -28.421875 L 15.71875 0 L 11.171875 0 L 11.171875 -12.1875 L 6.09375 -12.1875 Z M 6.09375 0 "/>
      </g>
    </g>
  </g>
  <g fill="#000000" fill-opacity="1">
    <g transform="translate(84.301797, 57.004771)">
      <g>
        <path d="M 5.8125 -9.421875 L 0.15625 -28.421875 L 4.828125 -28.421875 L 8.25 -15.46875 L 11.65625 -28.421875 L 15.921875 -28.421875 L 10.28125 -9.421875 L 10.28125 0 L 5.8125 0 Z M 5.8125 -9.421875 "/>
      </g>
    </g>
  </g>
  <g fill="#000000" fill-opacity="1">
    <g transform="translate(105.949555, 57.004771)">
      <g>
        <path d="M 1.625 -28.421875 L 8.6875 -28.421875 C 10.9375 -28.421875 12.609375 -27.828125 13.703125 -26.640625 C 14.796875 -25.453125 15.34375 -23.707031 15.34375 -21.40625 L 15.34375 -7.03125 C 15.34375 -4.726562 14.796875 -2.976562 13.703125 -1.78125 C 12.609375 -0.59375 10.9375 0 8.6875 0 L 1.625 0 Z M 6.09375 -24.359375 L 6.09375 -4.0625 L 8.609375 -4.0625 C 9.316406 -4.0625 9.875 -4.265625 10.28125 -4.671875 C 10.6875 -5.078125 10.890625 -5.796875 10.890625 -6.828125 L 10.890625 -21.609375 C 10.890625 -22.628906 10.6875 -23.34375 10.28125 -23.75 C 9.875 -24.15625 9.316406 -24.359375 8.609375 -24.359375 Z M 6.09375 -24.359375 "/>
      </g>
    </g>
  </g>
  <g fill="#000000" fill-opacity="1">
    <g transform="translate(128.084642, 57.004771)">
      <g>
        <path d="M 10.96875 0 C 10.914062 -0.1875 10.859375 -0.359375 10.796875 -0.515625 C 10.742188 -0.679688 10.695312 -0.882812 10.65625 -1.125 C 10.613281 -1.375 10.585938 -1.6875 10.578125 -2.0625 C 10.566406 -2.445312 10.5625 -2.925781 10.5625 -3.5 L 10.5625 -7.953125 C 10.5625 -9.285156 10.328125 -10.222656 9.859375 -10.765625 C 9.398438 -11.304688 8.660156 -11.578125 7.640625 -11.578125 L 6.09375 -11.578125 L 6.09375 0 L 1.625 0 L 1.625 -28.421875 L 8.359375 -28.421875 C 10.691406 -28.421875 12.378906 -27.878906 13.421875 -26.796875 C 14.460938 -25.710938 14.984375 -24.078125 14.984375 -21.890625 L 14.984375 -19.65625 C 14.984375 -16.726562 14.007812 -14.804688 12.0625 -13.890625 C 13.195312 -13.429688 13.972656 -12.679688 14.390625 -11.640625 C 14.816406 -10.597656 15.03125 -9.332031 15.03125 -7.84375 L 15.03125 -3.453125 C 15.03125 -2.742188 15.054688 -2.125 15.109375 -1.59375 C 15.160156 -1.070312 15.296875 -0.539062 15.515625 0 Z M 6.09375 -24.359375 L 6.09375 -15.640625 L 7.84375 -15.640625 C 8.675781 -15.640625 9.328125 -15.851562 9.796875 -16.28125 C 10.273438 -16.71875 10.515625 -17.503906 10.515625 -18.640625 L 10.515625 -21.4375 C 10.515625 -22.46875 10.332031 -23.210938 9.96875 -23.671875 C 9.601562 -24.128906 9.03125 -24.359375 8.25 -24.359375 Z M 6.09375 -24.359375 "/>
      </g>
    </g>
  </g>
  <g fill="#000000" fill-opacity="1">
    <g transform="translate(149.97608, 57.004771)">
      <g>
        <path d="M 16.078125 0 L 11.578125 0 L 10.796875 -5.15625 L 5.3125 -5.15625 L 4.546875 0 L 0.453125 0 L 5 -28.421875 L 11.53125 -28.421875 Z M 5.890625 -9.015625 L 10.1875 -9.015625 L 8.046875 -23.390625 Z M 5.890625 -9.015625 "/>
      </g>
    </g>
  </g>
  <g fill="#000000" fill-opacity="1">
    <g transform="translate(172.070577, 57.004771)">
      <g>
        <path d="M 0.328125 -28.421875 L 14.125 -28.421875 L 14.125 -24.359375 L 9.46875 -24.359375 L 9.46875 0 L 5 0 L 5 -24.359375 L 0.328125 -24.359375 Z M 0.328125 -28.421875 "/>
      </g>
    </g>
  </g>
  <g fill="#000000" fill-opacity="1">
    <g transform="translate(192.093898, 57.004771)">
      <g>
        <path d="M 1.625 -28.421875 L 6.09375 -28.421875 L 6.09375 0 L 1.625 0 Z M 1.625 -28.421875 "/>
      </g>
    </g>
  </g>
  <g fill="#000000" fill-opacity="1">
    <g transform="translate(205.375724, 57.004771)">
      <g>
        <path d="M 5.71875 -6.53125 C 5.71875 -5.507812 5.925781 -4.785156 6.34375 -4.359375 C 6.769531 -3.941406 7.335938 -3.734375 8.046875 -3.734375 C 8.742188 -3.734375 9.300781 -3.941406 9.71875 -4.359375 C 10.144531 -4.785156 10.359375 -5.507812 10.359375 -6.53125 L 10.359375 -21.890625 C 10.359375 -22.921875 10.144531 -23.644531 9.71875 -24.0625 C 9.300781 -24.476562 8.742188 -24.6875 8.046875 -24.6875 C 7.335938 -24.6875 6.769531 -24.476562 6.34375 -24.0625 C 5.925781 -23.644531 5.71875 -22.921875 5.71875 -21.890625 Z M 1.265625 -21.609375 C 1.265625 -23.910156 1.84375 -25.675781 3 -26.90625 C 4.164062 -28.132812 5.847656 -28.75 8.046875 -28.75 C 10.234375 -28.75 11.910156 -28.132812 13.078125 -26.90625 C 14.242188 -25.675781 14.828125 -23.910156 14.828125 -21.609375 L 14.828125 -6.828125 C 14.828125 -4.523438 14.242188 -2.753906 13.078125 -1.515625 C 11.910156 -0.285156 10.234375 0.328125 8.046875 0.328125 C 5.847656 0.328125 4.164062 -0.285156 3 -1.515625 C 1.84375 -2.753906 1.265625 -4.523438 1.265625 -6.828125 Z M 1.265625 -21.609375 "/>
      </g>
    </g>
  </g>
  <g fill="#000000" fill-opacity="1">
    <g transform="translate(227.013616, 57.004771)">
      <g/>
    </g>
  </g>
  <g fill="#1592a8" fill-opacity="1">
    <g transform="translate(231.228076, 94.040697)">
      <g>
        <path d="M 50.898 -48.75 C 50.898 -53.602 50.898 -56.543 51.375 -63.621 L 49.465 -63.621 C 49.863 -56.543 49.941 -53.602 49.941 -48.75 L 49.941 -3.023 L 10.34 -63.621 L 5.566 -63.621 C 6.043 -56.543 6.043 -53.602 6.043 -48.75 L 6.481 -28.533 C 6.481 -23.6 6.569 -32.574 6.092 -25.496 L 6.527 -25.745 C 8.218 -113.236 6.036 -21.147 6.036 -26.08 L 7 -60.602 L 46.602 0 L 51.375 0 C 50.898 -7.078 50.898 -10.02 50.898 -14.953 L 50.898 -48.75 Z M 50.898 -48.75"/>
      </g>
    </g>
  </g>
  <g fill="#000000" fill-opacity="1">
    <g transform="translate(287.883429, 89.48834)">
      <g>
        <path d="M 15.953125 0 L 11.484375 0 L 10.71875 -5.125 L 5.28125 -5.125 L 4.515625 0 L 0.4375 0 L 4.953125 -28.203125 L 11.4375 -28.203125 Z M 5.84375 -8.953125 L 10.109375 -8.953125 L 7.984375 -23.21875 Z M 5.84375 -8.953125 "/>
      </g>
    </g>
  </g>
  <g fill="#000000" fill-opacity="1">
    <g transform="translate(309.805256, 89.48834)">
      <g>
        <path d="M 0.328125 -28.203125 L 14.015625 -28.203125 L 14.015625 -24.171875 L 9.390625 -24.171875 L 9.390625 0 L 4.953125 0 L 4.953125 -24.171875 L 0.328125 -24.171875 Z M 0.328125 -28.203125 "/>
      </g>
    </g>
  </g>
  <g fill="#000000" fill-opacity="1">
    <g transform="translate(329.672211, 89.48834)">
      <g>
        <path d="M 1.609375 -28.203125 L 6.046875 -28.203125 L 6.046875 0 L 1.609375 0 Z M 1.609375 -28.203125 "/>
      </g>
    </g>
  </g>
  <g fill="#000000" fill-opacity="1">
    <g transform="translate(342.850702, 89.48834)">
      <g>
        <path d="M 5.6875 -6.484375 C 5.6875 -5.460938 5.894531 -4.742188 6.3125 -4.328125 C 6.726562 -3.910156 7.285156 -3.703125 7.984375 -3.703125 C 8.679688 -3.703125 9.238281 -3.910156 9.65625 -4.328125 C 10.070312 -4.742188 10.28125 -5.460938 10.28125 -6.484375 L 10.28125 -21.71875 C 10.28125 -22.738281 10.070312 -23.457031 9.65625 -23.875 C 9.238281 -24.289062 8.679688 -24.5 7.984375 -24.5 C 7.285156 -24.5 6.726562 -24.289062 6.3125 -23.875 C 5.894531 -23.457031 5.6875 -22.738281 5.6875 -21.71875 Z M 1.25 -21.4375 C 1.25 -23.71875 1.828125 -25.46875 2.984375 -26.6875 C 4.140625 -27.914062 5.804688 -28.53125 7.984375 -28.53125 C 10.160156 -28.53125 11.820312 -27.914062 12.96875 -26.6875 C 14.125 -25.46875 14.703125 -23.71875 14.703125 -21.4375 L 14.703125 -6.765625 C 14.703125 -4.484375 14.125 -2.726562 12.96875 -1.5 C 11.820312 -0.28125 10.160156 0.328125 7.984375 0.328125 C 5.804688 0.328125 4.140625 -0.28125 2.984375 -1.5 C 1.828125 -2.726562 1.25 -4.484375 1.25 -6.765625 Z M 1.25 -21.4375 "/>
      </g>
    </g>
  </g>
  <g fill="#000000" fill-opacity="1">
    <g transform="translate(364.329328, 89.48834)">
      <g>
        <path d="M 5.5625 -20.4375 L 5.5625 0 L 1.578125 0 L 1.578125 -28.203125 L 7.125 -28.203125 L 11.6875 -11.328125 L 11.6875 -28.203125 L 15.640625 -28.203125 L 15.640625 0 L 11.078125 0 Z M 5.5625 -20.4375 "/>
      </g>
    </g>
  </g>
  <g clip-path="url(#fd78b53788)">
    <g clip-path="url(#d35f568410)">
      <g clip-path="url(#04c18f832b)">
        <path fill="#ffbd59" d="M 237.769531 50.863281 L 237.738281 70.761719 L 230.191406 70.429688 C 230.414062 70.570312 230.65625 70.679688 230.921875 70.742188 C 231.742188 70.941406 232.695312 71.304688 234.785156 71.566406 C 234.785156 71.566406 228.566406 71.597656 228.039062 70.953125 C 228.042969 70.753906 228.050781 70.546875 228.054688 70.332031 L 227.511719 70.308594 L 227.789062 59.371094 L 228.355469 58.886719 L 228.410156 54.074219 C 228.054688 54.144531 227.847656 54.207031 227.839844 54.210938 C 227.488281 54.320312 227.113281 54.125 227.003906 53.773438 C 226.894531 53.421875 227.09375 53.046875 227.445312 52.933594 C 227.484375 52.921875 227.84375 52.8125 228.425781 52.707031 L 228.460938 49.617188 C 228.054688 49.695312 227.8125 49.765625 227.808594 49.769531 C 227.453125 49.878906 227.078125 49.679688 226.972656 49.328125 C 226.867188 48.972656 227.066406 48.601562 227.417969 48.492188 C 227.457031 48.480469 227.847656 48.363281 228.480469 48.257812 L 228.550781 42.136719 L 237.203125 42.246094 L 237.132812 51.40625 Z M 233.484375 41.03125 C 233.210938 41.304688 232.832031 41.472656 232.417969 41.476562 C 231.585938 41.476562 230.914062 40.804688 230.914062 39.972656 L 230.917969 38.039062 L 224.632812 38.167969 C 223.84375 38.183594 223.226562 38.863281 223.285156 39.652344 L 223.367188 40.722656 C 223.371094 41.515625 224.535156 42.210938 226.363281 42.675781 L 226.511719 71.851562 L 226.511719 71.953125 C 226.511719 72.246094 227.527344 72.753906 229.558594 72.996094 L 229.582031 78.125 L 230.871094 78.625 L 230.882812 80.546875 L 231.3125 80.542969 L 231.324219 82.914062 L 232.535156 83.480469 L 232.558594 95.410156 L 233.226562 94.859375 L 233.226562 83.519531 L 234.371094 82.988281 L 234.3125 80.484375 L 234.800781 80.480469 L 234.792969 78.554688 L 235.832031 78.058594 L 235.808594 72.933594 C 238.191406 72.644531 238.90625 72.117188 238.90625 71.820312 L 238.90625 71.71875 L 238.757812 42.285156 C 240.085938 41.808594 241.5625 41.011719 241.558594 40.351562 L 241.46875 39.117188 C 241.414062 38.390625 240.800781 37.835938 240.074219 37.851562 L 233.929688 37.976562 L 233.925781 39.96875 C 233.925781 40.382812 233.753906 40.757812 233.484375 41.03125 " fill-opacity="1" fill-rule="nonzero"/>
      </g>
    </g>
  </g>
  <g clip-path="url(#63cee02c3f)">
    <g clip-path="url(#1f008dc701)">
      <g clip-path="url(#084bcd4a7e)">
        <path fill="#ffbd59" d="M 227.789062 59.371094 L 227.511719 70.308594 L 228.054688 70.332031 C 228.125 67.679688 228.078125 64.335938 228.078125 64.335938 L 229.121094 68.75 C 229.21875 69.453125 229.617188 70.058594 230.191406 70.429688 L 237.738281 70.761719 L 237.769531 50.863281 L 237.132812 51.40625 L 228.355469 58.886719 L 227.789062 59.371094 " fill-opacity="1" fill-rule="nonzero"/>
      </g>
    </g>
  </g>
  <g clip-path="url(#19078a97e9)">
    <g clip-path="url(#dbc090d256)">
      <g clip-path="url(#293e71af12)">
        <path fill="#ffbd59" d="M 232.566406 54.0625 C 232.796875 54.109375 233.023438 54.03125 233.179688 53.878906 C 233.265625 53.789062 233.332031 53.675781 233.359375 53.542969 C 233.4375 53.179688 233.207031 52.828125 232.84375 52.75 C 231.042969 52.378906 229.414062 52.535156 228.425781 52.707031 C 227.84375 52.8125 227.484375 52.921875 227.445312 52.933594 C 227.09375 53.046875 226.894531 53.421875 227.003906 53.773438 C 227.113281 54.125 227.488281 54.320312 227.839844 54.210938 C 227.847656 54.207031 228.054688 54.144531 228.410156 54.074219 C 229.222656 53.910156 230.808594 53.699219 232.566406 54.0625 " fill-opacity="1" fill-rule="nonzero"/>
      </g>
    </g>
  </g>
  <g clip-path="url(#2c69c311f5)">
    <g clip-path="url(#da0112c4ca)">
      <g clip-path="url(#0c0722872b)">
        <path fill="#ffbd59" d="M 232.515625 49.636719 C 232.742188 49.6875 232.96875 49.609375 233.125 49.457031 C 233.214844 49.367188 233.277344 49.25 233.304688 49.121094 C 233.382812 48.757812 233.152344 48.402344 232.789062 48.328125 C 231.042969 47.96875 229.464844 48.09375 228.480469 48.257812 C 227.847656 48.363281 227.457031 48.480469 227.417969 48.492188 C 227.066406 48.601562 226.867188 48.972656 226.972656 49.328125 C 227.078125 49.679688 227.453125 49.878906 227.808594 49.769531 C 227.8125 49.765625 228.054688 49.695312 228.460938 49.617188 C 229.292969 49.460938 230.820312 49.289062 232.515625 49.636719 " fill-opacity="1" fill-rule="nonzero"/>
      </g>
    </g>
  </g>
  <g clip-path="url(#afcc78b8dd)">
    <g clip-path="url(#be75082fad)">
      <g clip-path="url(#e8c7406f69)">
        <path fill="#ffbd59" d="M 224.839844 27.78125 C 224.007812 27.785156 223.332031 28.460938 223.332031 29.289062 C 223.332031 30.121094 224.003906 30.792969 224.832031 30.792969 L 230.933594 30.777344 L 230.914062 39.972656 C 230.914062 40.804688 231.585938 41.476562 232.417969 41.476562 C 232.832031 41.472656 233.210938 41.304688 233.484375 41.03125 C 233.753906 40.757812 233.925781 40.382812 233.925781 39.96875 L 233.929688 37.976562 L 233.941406 30.773438 L 240.214844 30.761719 C 240.628906 30.761719 241.003906 30.589844 241.277344 30.320312 C 241.550781 30.046875 241.71875 29.667969 241.71875 29.253906 C 241.722656 28.421875 241.050781 27.75 240.21875 27.753906 L 224.839844 27.78125 " fill-opacity="1" fill-rule="nonzero"/>
      </g>
    </g>
  </g>
  <g clip-path="url(#78f43142df)">
    <path fill="#7ed957" d="M 238.871094 106.90625 C 238.871094 109.742188 236.527344 112.042969 233.628906 112.042969 C 230.734375 112.042969 228.386719 109.742188 228.386719 106.90625 C 228.386719 104.070312 233.628906 97.804688 233.628906 97.804688 C 233.628906 97.804688 238.871094 104.070312 238.871094 106.90625 " fill-opacity="1" fill-rule="nonzero"/>
  </g>
  <g clip-path="url(#36f5bd93bf)">
    <path fill="#ffbd59" d="M 238.175781 122.78125 C 238.175781 125.171875 236.164062 127.105469 233.683594 127.105469 C 231.203125 127.105469 229.191406 125.171875 229.191406 122.78125 C 229.191406 120.390625 233.683594 115.117188 233.683594 115.117188 C 233.683594 115.117188 238.175781 120.390625 238.175781 122.78125 " fill-opacity="1" fill-rule="nonzero"/>
  </g>
  <g clip-path="url(#c649b8596a)">
    <path fill="#1592a8" d="M 238.34375 135.550781 C 238.34375 137.492188 236.667969 139.066406 234.597656 139.066406 C 232.53125 139.066406 230.851562 137.492188 230.851562 135.550781 C 230.851562 133.609375 234.597656 129.324219 234.597656 129.324219 C 234.597656 129.324219 238.34375 133.609375 238.34375 135.550781 " fill-opacity="1" fill-rule="nonzero"/>
  </g>
  <g fill="#000000" fill-opacity="1">
    <g transform="translate(301.513199, 142.562477)">
      <g>
        <path d="M 4.5625 -3.3125 L 4.5625 -2.140625 C 4.5625 -1.421875 4.382812 -0.863281 4.03125 -0.46875 C 3.6875 -0.0820312 3.171875 0.109375 2.484375 0.109375 C 1.796875 0.109375 1.273438 -0.0820312 0.921875 -0.46875 C 0.566406 -0.863281 0.390625 -1.421875 0.390625 -2.140625 L 0.390625 -6.765625 C 0.390625 -7.484375 0.566406 -8.035156 0.921875 -8.421875 C 1.273438 -8.804688 1.796875 -9 2.484375 -9 C 3.171875 -9 3.6875 -8.804688 4.03125 -8.421875 C 4.382812 -8.035156 4.5625 -7.484375 4.5625 -6.765625 L 4.5625 -5.90625 L 3.25 -5.90625 L 3.25 -6.859375 C 3.25 -7.179688 3.179688 -7.40625 3.046875 -7.53125 C 2.910156 -7.664062 2.734375 -7.734375 2.515625 -7.734375 C 2.296875 -7.734375 2.117188 -7.664062 1.984375 -7.53125 C 1.859375 -7.40625 1.796875 -7.179688 1.796875 -6.859375 L 1.796875 -2.046875 C 1.796875 -1.722656 1.859375 -1.5 1.984375 -1.375 C 2.117188 -1.25 2.296875 -1.1875 2.515625 -1.1875 C 2.734375 -1.1875 2.910156 -1.25 3.046875 -1.375 C 3.179688 -1.5 3.25 -1.722656 3.25 -2.046875 L 3.25 -3.3125 Z M 4.5625 -3.3125 "/>
      </g>
    </g>
  </g>
  <g fill="#000000" fill-opacity="1">
    <g transform="translate(308.166275, 142.562477)">
      <g>
        <path d="M 1.796875 -2.046875 C 1.796875 -1.722656 1.859375 -1.492188 1.984375 -1.359375 C 2.117188 -1.234375 2.296875 -1.171875 2.515625 -1.171875 C 2.734375 -1.171875 2.910156 -1.234375 3.046875 -1.359375 C 3.179688 -1.492188 3.25 -1.722656 3.25 -2.046875 L 3.25 -6.859375 C 3.25 -7.179688 3.179688 -7.40625 3.046875 -7.53125 C 2.910156 -7.664062 2.734375 -7.734375 2.515625 -7.734375 C 2.296875 -7.734375 2.117188 -7.664062 1.984375 -7.53125 C 1.859375 -7.40625 1.796875 -7.179688 1.796875 -6.859375 Z M 0.390625 -6.765625 C 0.390625 -7.484375 0.570312 -8.035156 0.9375 -8.421875 C 1.300781 -8.804688 1.828125 -9 2.515625 -9 C 3.203125 -9 3.726562 -8.804688 4.09375 -8.421875 C 4.457031 -8.035156 4.640625 -7.484375 4.640625 -6.765625 L 4.640625 -2.140625 C 4.640625 -1.421875 4.457031 -0.863281 4.09375 -0.46875 C 3.726562 -0.0820312 3.203125 0.109375 2.515625 0.109375 C 1.828125 0.109375 1.300781 -0.0820312 0.9375 -0.46875 C 0.570312 -0.863281 0.390625 -1.421875 0.390625 -2.140625 Z M 0.390625 -6.765625 "/>
      </g>
    </g>
  </g>
  <g fill="#000000" fill-opacity="1">
    <g transform="translate(314.946555, 142.562477)">
      <g>
        <path d="M 1.75 -6.453125 L 1.75 0 L 0.5 0 L 0.5 -8.90625 L 2.25 -8.90625 L 3.6875 -3.578125 L 3.6875 -8.90625 L 4.9375 -8.90625 L 4.9375 0 L 3.5 0 Z M 1.75 -6.453125 "/>
      </g>
    </g>
  </g>
  <g fill="#000000" fill-opacity="1">
    <g transform="translate(322.121192, 142.562477)">
      <g>
        <path d="M 4.5625 -3.3125 L 4.5625 -2.140625 C 4.5625 -1.421875 4.382812 -0.863281 4.03125 -0.46875 C 3.6875 -0.0820312 3.171875 0.109375 2.484375 0.109375 C 1.796875 0.109375 1.273438 -0.0820312 0.921875 -0.46875 C 0.566406 -0.863281 0.390625 -1.421875 0.390625 -2.140625 L 0.390625 -6.765625 C 0.390625 -7.484375 0.566406 -8.035156 0.921875 -8.421875 C 1.273438 -8.804688 1.796875 -9 2.484375 -9 C 3.171875 -9 3.6875 -8.804688 4.03125 -8.421875 C 4.382812 -8.035156 4.5625 -7.484375 4.5625 -6.765625 L 4.5625 -5.90625 L 3.25 -5.90625 L 3.25 -6.859375 C 3.25 -7.179688 3.179688 -7.40625 3.046875 -7.53125 C 2.910156 -7.664062 2.734375 -7.734375 2.515625 -7.734375 C 2.296875 -7.734375 2.117188 -7.664062 1.984375 -7.53125 C 1.859375 -7.40625 1.796875 -7.179688 1.796875 -6.859375 L 1.796875 -2.046875 C 1.796875 -1.722656 1.859375 -1.5 1.984375 -1.375 C 2.117188 -1.25 2.296875 -1.1875 2.515625 -1.1875 C 2.734375 -1.1875 2.910156 -1.25 3.046875 -1.375 C 3.179688 -1.5 3.25 -1.722656 3.25 -2.046875 L 3.25 -3.3125 Z M 4.5625 -3.3125 "/>
      </g>
    </g>
  </g>
  <g fill="#000000" fill-opacity="1">
    <g transform="translate(328.77427, 142.562477)">
      <g>
        <path d="M 0.515625 -8.90625 L 1.90625 -8.90625 L 1.90625 0 L 0.515625 0 Z M 0.515625 -8.90625 "/>
      </g>
    </g>
  </g>
  <g fill="#000000" fill-opacity="1">
    <g transform="translate(332.934025, 142.562477)">
      <g>
        <path d="M 1.90625 -5.15625 L 3.828125 -5.15625 L 3.828125 -3.875 L 1.90625 -3.875 L 1.90625 -1.265625 L 4.328125 -1.265625 L 4.328125 0 L 0.515625 0 L 0.515625 -8.90625 L 4.328125 -8.90625 L 4.328125 -7.625 L 1.90625 -7.625 Z M 1.90625 -5.15625 "/>
      </g>
    </g>
  </g>
  <g fill="#000000" fill-opacity="1">
    <g transform="translate(339.358122, 142.562477)">
      <g>
        <path d="M 3.4375 0 C 3.414062 -0.0625 3.394531 -0.113281 3.375 -0.15625 C 3.363281 -0.207031 3.347656 -0.269531 3.328125 -0.34375 C 3.316406 -0.425781 3.3125 -0.523438 3.3125 -0.640625 C 3.3125 -0.765625 3.3125 -0.914062 3.3125 -1.09375 L 3.3125 -2.5 C 3.3125 -2.90625 3.238281 -3.191406 3.09375 -3.359375 C 2.945312 -3.535156 2.710938 -3.625 2.390625 -3.625 L 1.90625 -3.625 L 1.90625 0 L 0.515625 0 L 0.515625 -8.90625 L 2.625 -8.90625 C 3.351562 -8.90625 3.878906 -8.734375 4.203125 -8.390625 C 4.523438 -8.054688 4.6875 -7.546875 4.6875 -6.859375 L 4.6875 -6.15625 C 4.6875 -5.238281 4.382812 -4.632812 3.78125 -4.34375 C 4.132812 -4.207031 4.375 -3.972656 4.5 -3.640625 C 4.632812 -3.316406 4.703125 -2.921875 4.703125 -2.453125 L 4.703125 -1.078125 C 4.703125 -0.859375 4.707031 -0.664062 4.71875 -0.5 C 4.738281 -0.332031 4.785156 -0.164062 4.859375 0 Z M 1.90625 -7.625 L 1.90625 -4.890625 L 2.453125 -4.890625 C 2.710938 -4.890625 2.914062 -4.957031 3.0625 -5.09375 C 3.21875 -5.226562 3.296875 -5.476562 3.296875 -5.84375 L 3.296875 -6.71875 C 3.296875 -7.039062 3.238281 -7.269531 3.125 -7.40625 C 3.007812 -7.550781 2.828125 -7.625 2.578125 -7.625 Z M 1.90625 -7.625 "/>
      </g>
    </g>
  </g>
  <g fill="#000000" fill-opacity="1">
    <g transform="translate(346.214736, 142.562477)">
      <g>
        <path d="M 2.609375 -4.953125 L 4.5625 -4.953125 L 4.5625 -2.140625 C 4.5625 -1.421875 4.382812 -0.863281 4.03125 -0.46875 C 3.6875 -0.0820312 3.171875 0.109375 2.484375 0.109375 C 1.796875 0.109375 1.273438 -0.0820312 0.921875 -0.46875 C 0.566406 -0.863281 0.390625 -1.421875 0.390625 -2.140625 L 0.390625 -6.765625 C 0.390625 -7.484375 0.566406 -8.035156 0.921875 -8.421875 C 1.273438 -8.804688 1.796875 -9 2.484375 -9 C 3.171875 -9 3.6875 -8.804688 4.03125 -8.421875 C 4.382812 -8.035156 4.5625 -7.484375 4.5625 -6.765625 L 4.5625 -5.90625 L 3.25 -5.90625 L 3.25 -6.859375 C 3.25 -7.179688 3.179688 -7.40625 3.046875 -7.53125 C 2.910156 -7.664062 2.734375 -7.734375 2.515625 -7.734375 C 2.296875 -7.734375 2.117188 -7.664062 1.984375 -7.53125 C 1.859375 -7.40625 1.796875 -7.179688 1.796875 -6.859375 L 1.796875 -2.046875 C 1.796875 -1.722656 1.859375 -1.5 1.984375 -1.375 C 2.117188 -1.25 2.296875 -1.1875 2.515625 -1.1875 C 2.734375 -1.1875 2.910156 -1.25 3.046875 -1.375 C 3.179688 -1.5 3.25 -1.722656 3.25 -2.046875 L 3.25 -3.6875 L 2.609375 -3.6875 Z M 2.609375 -4.953125 "/>
      </g>
    </g>
  </g>
  <g fill="#000000" fill-opacity="1">
    <g transform="translate(352.918701, 142.562477)">
      <g>
        <path d="M 1.90625 -5.15625 L 3.828125 -5.15625 L 3.828125 -3.875 L 1.90625 -3.875 L 1.90625 -1.265625 L 4.328125 -1.265625 L 4.328125 0 L 0.515625 0 L 0.515625 -8.90625 L 4.328125 -8.90625 L 4.328125 -7.625 L 1.90625 -7.625 Z M 1.90625 -5.15625 "/>
      </g>
    </g>
  </g>
  <g fill="#000000" fill-opacity="1">
    <g transform="translate(359.342798, 142.562477)">
      <g/>
    </g>
  </g>
  <g fill="#000000" fill-opacity="1">
    <g transform="translate(363.057324, 142.562477)">
      <g>
        <path d="M 0.515625 -8.90625 L 1.90625 -8.90625 L 1.90625 0 L 0.515625 0 Z M 0.515625 -8.90625 "/>
      </g>
    </g>
  </g>
  <g fill="#000000" fill-opacity="1">
    <g transform="translate(367.21708, 142.562477)">
      <g>
        <path d="M 2.625 -1.640625 L 3.6875 -8.90625 L 4.96875 -8.90625 L 3.59375 0 L 1.515625 0 L 0.140625 -8.90625 L 1.546875 -8.90625 Z M 2.625 -1.640625 "/>
      </g>
    </g>
  </g>
  <g fill="#000000" fill-opacity="1">
    <g transform="translate(374.073689, 142.562477)">
      <g/>
    </g>
  </g>
  <g fill="#000000" fill-opacity="1">
    <g transform="translate(377.78821, 142.562477)">
      <g>
        <path d="M 0.515625 -8.90625 L 1.90625 -8.90625 L 1.90625 0 L 0.515625 0 Z M 0.515625 -8.90625 "/>
      </g>
    </g>
  </g>
  <g fill="#000000" fill-opacity="1">
    <g transform="translate(381.947962, 142.562477)">
      <g>
        <path d="M 1.75 -6.453125 L 1.75 0 L 0.5 0 L 0.5 -8.90625 L 2.25 -8.90625 L 3.6875 -3.578125 L 3.6875 -8.90625 L 4.9375 -8.90625 L 4.9375 0 L 3.5 0 Z M 1.75 -6.453125 "/>
      </g>
    </g>
  </g>
  <g fill="#000000" fill-opacity="1">
    <g transform="translate(389.122598, 142.562477)">
      <g>
        <path d="M 1.90625 -4.953125 L 3.71875 -4.953125 L 3.71875 -3.671875 L 1.90625 -3.671875 L 1.90625 0 L 0.515625 0 L 0.515625 -8.90625 L 4.203125 -8.90625 L 4.203125 -7.625 L 1.90625 -7.625 Z M 1.90625 -4.953125 "/>
      </g>
    </g>
  </g>
  <g fill="#000000" fill-opacity="1">
    <g transform="translate(395.241394, 142.562477)">
      <g>
        <path d="M 1.84375 -8.90625 L 1.84375 -2.03125 C 1.84375 -1.707031 1.90625 -1.484375 2.03125 -1.359375 C 2.164062 -1.234375 2.34375 -1.171875 2.5625 -1.171875 C 2.789062 -1.171875 2.96875 -1.234375 3.09375 -1.359375 C 3.226562 -1.484375 3.296875 -1.707031 3.296875 -2.03125 L 3.296875 -8.90625 L 4.609375 -8.90625 L 4.609375 -2.125 C 4.609375 -1.40625 4.429688 -0.851562 4.078125 -0.46875 C 3.734375 -0.0820312 3.21875 0.109375 2.53125 0.109375 C 1.84375 0.109375 1.320312 -0.0820312 0.96875 -0.46875 C 0.613281 -0.851562 0.4375 -1.40625 0.4375 -2.125 L 0.4375 -8.90625 Z M 1.84375 -8.90625 "/>
      </g>
    </g>
  </g>
  <g fill="#000000" fill-opacity="1">
    <g transform="translate(402.047116, 142.562477)">
      <g>
        <path d="M 0.328125 -6.765625 C 0.328125 -7.484375 0.5 -8.035156 0.84375 -8.421875 C 1.1875 -8.804688 1.703125 -9 2.390625 -9 C 3.078125 -9 3.59375 -8.804688 3.9375 -8.421875 C 4.28125 -8.035156 4.453125 -7.484375 4.453125 -6.765625 L 4.453125 -6.484375 L 3.125 -6.484375 L 3.125 -6.859375 C 3.125 -7.179688 3.0625 -7.40625 2.9375 -7.53125 C 2.820312 -7.664062 2.648438 -7.734375 2.421875 -7.734375 C 2.203125 -7.734375 2.03125 -7.664062 1.90625 -7.53125 C 1.789062 -7.40625 1.734375 -7.179688 1.734375 -6.859375 C 1.734375 -6.546875 1.800781 -6.273438 1.9375 -6.046875 C 2.070312 -5.816406 2.238281 -5.597656 2.4375 -5.390625 C 2.644531 -5.179688 2.863281 -4.972656 3.09375 -4.765625 C 3.332031 -4.554688 3.550781 -4.328125 3.75 -4.078125 C 3.957031 -3.835938 4.128906 -3.554688 4.265625 -3.234375 C 4.398438 -2.921875 4.46875 -2.554688 4.46875 -2.140625 C 4.46875 -1.421875 4.289062 -0.863281 3.9375 -0.46875 C 3.582031 -0.0820312 3.0625 0.109375 2.375 0.109375 C 1.6875 0.109375 1.164062 -0.0820312 0.8125 -0.46875 C 0.46875 -0.863281 0.296875 -1.421875 0.296875 -2.140625 L 0.296875 -2.6875 L 1.609375 -2.6875 L 1.609375 -2.046875 C 1.609375 -1.722656 1.675781 -1.5 1.8125 -1.375 C 1.945312 -1.25 2.125 -1.1875 2.34375 -1.1875 C 2.5625 -1.1875 2.734375 -1.25 2.859375 -1.375 C 2.992188 -1.5 3.0625 -1.722656 3.0625 -2.046875 C 3.0625 -2.347656 2.992188 -2.613281 2.859375 -2.84375 C 2.722656 -3.082031 2.550781 -3.304688 2.34375 -3.515625 C 2.144531 -3.722656 1.925781 -3.929688 1.6875 -4.140625 C 1.457031 -4.347656 1.238281 -4.570312 1.03125 -4.8125 C 0.832031 -5.0625 0.664062 -5.34375 0.53125 -5.65625 C 0.394531 -5.96875 0.328125 -6.335938 0.328125 -6.765625 Z M 0.328125 -6.765625 "/>
      </g>
    </g>
  </g>
  <g fill="#000000" fill-opacity="1">
    <g transform="translate(408.547541, 142.562477)">
      <g>
        <path d="M 0.515625 -8.90625 L 1.90625 -8.90625 L 1.90625 0 L 0.515625 0 Z M 0.515625 -8.90625 "/>
      </g>
    </g>
  </g>
  <g fill="#000000" fill-opacity="1">
    <g transform="translate(412.707292, 142.562477)">
      <g>
        <path d="M 1.796875 -2.046875 C 1.796875 -1.722656 1.859375 -1.492188 1.984375 -1.359375 C 2.117188 -1.234375 2.296875 -1.171875 2.515625 -1.171875 C 2.734375 -1.171875 2.910156 -1.234375 3.046875 -1.359375 C 3.179688 -1.492188 3.25 -1.722656 3.25 -2.046875 L 3.25 -6.859375 C 3.25 -7.179688 3.179688 -7.40625 3.046875 -7.53125 C 2.910156 -7.664062 2.734375 -7.734375 2.515625 -7.734375 C 2.296875 -7.734375 2.117188 -7.664062 1.984375 -7.53125 C 1.859375 -7.40625 1.796875 -7.179688 1.796875 -6.859375 Z M 0.390625 -6.765625 C 0.390625 -7.484375 0.570312 -8.035156 0.9375 -8.421875 C 1.300781 -8.804688 1.828125 -9 2.515625 -9 C 3.203125 -9 3.726562 -8.804688 4.09375 -8.421875 C 4.457031 -8.035156 4.640625 -7.484375 4.640625 -6.765625 L 4.640625 -2.140625 C 4.640625 -1.421875 4.457031 -0.863281 4.09375 -0.46875 C 3.726562 -0.0820312 3.203125 0.109375 2.515625 0.109375 C 1.828125 0.109375 1.300781 -0.0820312 0.9375 -0.46875 C 0.570312 -0.863281 0.390625 -1.421875 0.390625 -2.140625 Z M 0.390625 -6.765625 "/>
      </g>
    </g>
  </g>
  <g fill="#000000" fill-opacity="1">
    <g transform="translate(419.48757, 142.562477)">
      <g>
        <path d="M 1.75 -6.453125 L 1.75 0 L 0.5 0 L 0.5 -8.90625 L 2.25 -8.90625 L 3.6875 -3.578125 L 3.6875 -8.90625 L 4.9375 -8.90625 L 4.9375 0 L 3.5 0 Z M 1.75 -6.453125 "/>
      </g>
    </g>
  </g>
</svg>